<svg width="64" height="64" viewBox="0 0 64 64" fill="none" xmlns="http://www.w3.org/2000/svg">
<path d="M43.3113 40.1783C45.028 38.6483 46 36.609 46 34.4927C46 32.2437 44.9471 30.1403 43.0353 28.5697C41.1746 27.0416 38.7116 26.2 36.0998 26.2C33.4881 26.2 31.0251 27.0416 29.1647 28.5698C27.2528 30.1403 26.2 32.2437 26.2 34.4927C26.2 36.7418 27.2528 38.8452 29.1647 40.4158C31.0251 41.944 33.4881 42.7856 36.0998 42.7856C36.4479 42.7856 36.798 42.7702 37.1452 42.7397L37.7384 43.2539C39.7821 45.0248 42.3956 45.9996 45.0998 45.9997H45.9997V44.0841L45.7362 43.8205C44.6963 42.7776 43.8723 41.54 43.3113 40.1783ZM38.9173 41.8935L37.727 40.8619L37.3301 40.9105C36.9219 40.9604 36.5111 40.9855 36.0998 40.9855C31.6336 40.9855 27.9999 38.0729 27.9999 34.4927C27.9999 30.9126 31.6336 27.9999 36.0998 27.9999C40.5661 27.9999 44.1998 30.9126 44.1998 34.4927C44.1998 36.2764 43.3099 37.9416 41.6941 39.1816L41.1757 39.5793L41.4149 40.2563C41.9051 41.6389 42.6255 42.9286 43.5457 44.071C41.832 43.7849 40.2304 43.0314 38.9173 41.8935Z" fill="url(#paint0_linear_845_1471)"/>
<path d="M21.4854 35.9578C22.3278 34.8914 22.9893 33.6938 23.4433 32.4128L23.6807 31.7393L23.1628 31.3418C21.6391 30.1726 20.8 28.6033 20.8 26.9231C20.8 23.5468 24.2317 20.8 28.4499 20.8C31.5531 20.8 34.2305 22.2867 35.4292 24.4168C35.6517 24.406 35.8753 24.3999 36.0998 24.3999C36.5508 24.3999 36.9977 24.4218 37.4405 24.4656C36.9773 23.2655 36.1728 22.17 35.0667 21.2616C33.2914 19.8032 30.9417 19 28.4499 19C25.9581 19 23.6084 19.8032 21.8329 21.2616C20.0061 22.7622 19 24.7729 19 26.9231C19 28.9369 19.9198 30.8772 21.5453 32.3367C21.0148 33.6133 20.2397 34.7738 19.2636 35.7527L19 36.0163V37.8998H19.9C21.5642 37.8996 23.2056 37.512 24.6942 36.7678C24.531 36.1491 24.4353 35.5146 24.4089 34.8753C23.5055 35.4048 22.5158 35.7712 21.4854 35.9578Z" fill="url(#paint1_linear_845_1471)"/>
<path opacity="0.05" d="M32 64C49.6731 64 64 49.6731 64 32C64 14.3269 49.6731 0 32 0C14.3269 0 0 14.3269 0 32C0 49.6731 14.3269 64 32 64Z" fill="url(#paint2_linear_845_1471)"/>
<defs>
<linearGradient id="paint0_linear_845_1471" x1="26.2" y1="45.9997" x2="46" y2="45.9997" gradientUnits="userSpaceOnUse">
<stop stop-color="#C81162"/>
<stop offset="0.0833333" stop-color="#CD205D"/>
<stop offset="0.15625" stop-color="#D22F58"/>
<stop offset="0.260417" stop-color="#D63D53"/>
<stop offset="0.359375" stop-color="#DB4C4D"/>
<stop offset="0.463542" stop-color="#DF5A48"/>
<stop offset="0.572917" stop-color="#E46843"/>
<stop offset="0.682292" stop-color="#E8763E"/>
<stop offset="0.765625" stop-color="#EC8439"/>
<stop offset="0.875" stop-color="#F19134"/>
<stop offset="0.989583" stop-color="#F49E2F"/>
</linearGradient>
<linearGradient id="paint1_linear_845_1471" x1="19" y1="37.8998" x2="37.4405" y2="37.8998" gradientUnits="userSpaceOnUse">
<stop stop-color="#C81162"/>
<stop offset="0.0833333" stop-color="#CD205D"/>
<stop offset="0.15625" stop-color="#D22F58"/>
<stop offset="0.260417" stop-color="#D63D53"/>
<stop offset="0.359375" stop-color="#DB4C4D"/>
<stop offset="0.463542" stop-color="#DF5A48"/>
<stop offset="0.572917" stop-color="#E46843"/>
<stop offset="0.682292" stop-color="#E8763E"/>
<stop offset="0.765625" stop-color="#EC8439"/>
<stop offset="0.875" stop-color="#F19134"/>
<stop offset="0.989583" stop-color="#F49E2F"/>
</linearGradient>
<linearGradient id="paint2_linear_845_1471" x1="0" y1="0" x2="0" y2="64" gradientUnits="userSpaceOnUse">
<stop stop-color="#C81162"/>
<stop offset="0.0833333" stop-color="#CD205D"/>
<stop offset="0.15625" stop-color="#D22F58"/>
<stop offset="0.260417" stop-color="#D63D53"/>
<stop offset="0.359375" stop-color="#DB4C4D"/>
<stop offset="0.463542" stop-color="#DF5A48"/>
<stop offset="0.572917" stop-color="#E46843"/>
<stop offset="0.682292" stop-color="#E8763E"/>
<stop offset="0.765625" stop-color="#EC8439"/>
<stop offset="0.875" stop-color="#F19134"/>
<stop offset="0.989583" stop-color="#F49E2F"/>
</linearGradient>
</defs>
</svg>
